<svg width="42" height="42" viewBox="0 0 42 42" fill="none" xmlns="http://www.w3.org/2000/svg">
<rect width="42" height="42" fill="white"/>
<path fill-rule="evenodd" clip-rule="evenodd" d="M12.7016 6.75H29.299C30.5736 6.74998 31.6255 6.74996 32.4824 6.81997C33.3723 6.89269 34.1905 7.04875 34.9589 7.44029C36.1506 8.04749 37.1195 9.01637 37.7267 10.2081C38.1045 10.9496 38.2631 11.7374 38.339 12.5914C38.4237 12.8501 38.4385 13.123 38.3882 13.3835C38.417 14.0962 38.417 14.9206 38.417 15.8679V26.1321C38.417 27.4066 38.417 28.4585 38.347 29.3154C38.2743 30.2054 38.1182 31.0235 37.7267 31.7919C37.1195 32.9836 36.1506 33.9525 34.9589 34.5597C34.1905 34.9513 33.3723 35.1073 32.4824 35.18C31.6255 35.25 30.5736 35.25 29.2991 35.25H12.7015C11.427 35.25 10.3751 35.25 9.51824 35.18C8.62825 35.1073 7.81014 34.9513 7.04169 34.5597C5.85 33.9525 4.88112 32.9836 4.27392 31.7919C3.88238 31.0235 3.72632 30.2054 3.65361 29.3154C3.58359 28.4585 3.58361 27.4066 3.58363 26.1321V15.8679C3.58362 14.9206 3.5836 14.0962 3.61235 13.3835C3.56207 13.123 3.57691 12.8501 3.66156 12.5914C3.73754 11.7374 3.89609 10.9496 4.27392 10.2081C4.88112 9.01637 5.85 8.04749 7.04169 7.44029C7.81014 7.04875 8.62825 6.89269 9.51824 6.81997C10.3751 6.74996 11.427 6.74998 12.7016 6.75ZM6.7503 16.1244V26.0667C6.7503 27.4229 6.75153 28.3449 6.80976 29.0575C6.86647 29.7517 6.96927 30.1067 7.09544 30.3543C7.39904 30.9502 7.88348 31.4346 8.47933 31.7382C8.72696 31.8644 9.08195 31.9672 9.77611 32.0239C10.4888 32.0821 11.4107 32.0833 12.767 32.0833H29.2336C30.5899 32.0833 31.5118 32.0821 32.2245 32.0239C32.9186 31.9672 33.2736 31.8644 33.5213 31.7382C34.1171 31.4346 34.6016 30.9501 34.9052 30.3543C35.0313 30.1067 35.1341 29.7517 35.1908 29.0575C35.2491 28.3449 35.2503 27.4229 35.2503 26.0667V16.1244L24.8138 23.4299C24.7524 23.4729 24.6915 23.5156 24.6312 23.558C23.7688 24.1635 23.0116 24.6953 22.1492 24.9102C21.3948 25.0983 20.6058 25.0983 19.8514 24.9102C18.989 24.6953 18.2318 24.1635 17.3694 23.558C17.3091 23.5156 17.2482 23.4729 17.1868 23.4299L6.7503 16.1244ZM35.1192 12.3507L22.9979 20.8357C21.8437 21.6436 21.5992 21.7838 21.3833 21.8376C21.1318 21.9003 20.8688 21.9003 20.6173 21.8376C20.4014 21.7838 20.1569 21.6436 19.0027 20.8357L6.88135 12.3507C6.93791 12.0227 7.01151 11.8104 7.09544 11.6457C7.39904 11.0499 7.88348 10.5654 8.47933 10.2618C8.72696 10.1356 9.08195 10.0328 9.77611 9.97612C10.4888 9.9179 11.4107 9.91667 12.767 9.91667H29.2336C30.5899 9.91667 31.5118 9.9179 32.2245 9.97612C32.9186 10.0328 33.2736 10.1356 33.5213 10.2618C34.1171 10.5654 34.6016 11.0499 34.9052 11.6457C34.9891 11.8104 35.0627 12.0227 35.1192 12.3507Z" fill="black"/>
</svg>
