<svg width="74" height="80" viewBox="0 0 74 80" fill="none" xmlns="http://www.w3.org/2000/svg">
<g clip-path="url(#clip0_11_81)">
<path fill-rule="evenodd" clip-rule="evenodd" d="M19.7726 11.4553L35.157 21.9565C35.5041 22.1878 35.9097 22.3144 36.326 22.3216C36.7429 22.3186 37.1494 22.1916 37.495 21.9565L52.8911 11.42C53.4893 10.9917 53.8192 10.2776 53.7592 9.54093C53.6992 8.80422 53.2584 8.15383 52.5989 7.82932L37.2143 0.212376C36.6308 -0.070792 35.951 -0.070792 35.3673 0.212376L20.0297 7.82932C19.3583 8.15556 18.9116 8.81854 18.8585 9.5673C18.8054 10.3161 19.154 11.0363 19.7726 11.4553ZM41.5516 25.2529C41.5528 25.9494 41.8937 26.6006 42.4634 26.9952L54.7966 35.4246C55.5861 35.9689 56.6425 35.901 57.3569 35.2598L67.7027 26.0064C68.1637 25.5944 68.4197 24.9979 68.4016 24.3774C68.3837 23.757 68.0934 23.1765 67.6091 22.7924L57.7309 14.893C57.0128 14.3225 56.0113 14.2845 55.2525 14.7988L42.4634 23.5459C41.9036 23.9334 41.5641 24.5691 41.5516 25.2529ZM10.8763 36.7195C11.3747 37.1673 11.631 37.8278 11.566 38.4973C11.5013 39.1706 11.1124 39.7689 10.5256 40.0983L3.16072 44.513C2.41414 44.9593 1.47151 44.895 0.791568 44.3513C0.111626 43.8078 -0.164385 42.8978 0.0978668 42.0644L2.82169 33.4939C3.03537 32.8147 3.57699 32.2914 4.2596 32.1047C4.9417 31.906 5.67722 32.0802 6.20019 32.5638L10.8763 36.7195ZM50.8218 37.6142L37.5067 28.5021C36.7991 28.026 35.8763 28.026 35.1687 28.5021L21.8534 37.6142C21.3238 37.9808 20.9884 38.5699 20.9416 39.2153C20.9071 39.8653 21.1646 40.4964 21.643 40.9342L34.9464 52.8364C35.3301 53.1786 35.8251 53.367 36.3377 53.3661C36.8499 53.3659 37.3447 53.1776 37.7288 52.8364L51.0324 40.9342C51.5121 40.4982 51.7664 39.8646 51.722 39.2153C51.6849 38.5699 51.3523 37.9783 50.8218 37.6142ZM15.3069 35.2598L4.97269 26.0064C4.5077 25.584 4.25111 24.9767 4.27127 24.3465C4.28252 23.7253 4.57001 23.1418 5.05453 22.7572L14.9328 14.8105C15.6558 14.2418 16.6595 14.2038 17.4228 14.7164L30.2003 23.4634C30.7932 23.8524 31.1509 24.5166 31.1509 25.2293C31.1509 25.942 30.7932 26.6064 30.2003 26.9952L17.8787 35.4245C17.0844 35.9664 16.0266 35.8987 15.3069 35.2598ZM68.369 48.5511L57.8477 42.2526C57.0663 41.7818 56.0718 41.8772 55.3927 42.4883L42.5335 53.9665C41.991 54.451 41.7363 55.1837 41.8601 55.9032C41.984 56.6225 42.4686 57.2261 43.1413 57.4983L60.9807 64.7268C61.2254 64.8285 61.4876 64.8806 61.7523 64.8798C62.5802 64.8825 63.3318 64.3933 63.6695 63.6319L69.199 51.247C69.6489 50.267 69.2907 49.1029 68.369 48.5511ZM69.8302 33.4939L72.5541 42.0644H72.5307C72.7322 42.7054 72.6176 43.4049 72.2226 43.9469C71.8276 44.489 71.1994 44.8086 70.5316 44.8075C70.1572 44.8086 69.7893 44.7069 69.4678 44.5132L62.0913 40.0983C61.5165 39.7622 61.1413 39.1643 61.086 38.4973C61.0169 37.8272 61.2739 37.1651 61.7757 36.7195L66.4518 32.552C66.98 32.0787 67.7101 31.9059 68.3924 32.0928C69.0745 32.2877 69.6142 32.8138 69.8302 33.4939ZM30.8081 55.8973C30.934 55.1808 30.6817 54.45 30.1418 53.9665L17.2826 42.4883C16.6035 41.8772 15.6089 41.7818 14.8276 42.2526L4.30636 48.5511C3.3954 49.1053 3.03497 50.2548 3.46467 51.2353L9.00586 63.6202C9.46493 64.6529 10.6518 65.1362 11.6946 64.7151L29.5223 57.4866C30.1952 57.2167 30.6816 56.6155 30.8081 55.8973ZM37.1209 59.4291L51.4298 65.2213C52.1295 65.5206 52.6128 66.1786 52.6924 66.94C52.783 67.711 52.4406 68.4686 51.8039 68.9061L37.4833 78.854C37.1402 79.0951 36.7327 79.2264 36.3143 79.2308C35.8963 79.2244 35.4895 79.0933 35.1453 78.854L20.8364 68.9061C20.1974 68.4697 19.8509 67.7129 19.9363 66.94C20.0318 66.1707 20.5325 65.5135 21.2455 65.2213L35.5544 59.4291C36.0575 59.2284 36.6178 59.2284 37.1209 59.4291Z" fill="#BF4722"/>
</g>
<defs>
<clipPath id="clip0_11_81">
<rect width="73.5714" height="79.2308" fill="white"/>
</clipPath>
</defs>
</svg>
