<svg width="29" height="20" viewBox="0 0 29 20" fill="none" xmlns="http://www.w3.org/2000/svg">
<path d="M26.2533 0.51227C14.0827 -0.682395 11.1707 19.7763 22.4453 19.7763C25.7307 19.7763 28.7173 17.2376 28.7173 13.4296C28.7173 9.39761 24.76 7.3816 22.1467 8.72561C21.9973 8.80027 21.4747 9.02427 21.4747 8.27761C21.848 6.2616 23.192 5.44027 25.7307 5.5896C26.7013 5.5896 27.448 5.06694 27.448 4.02161V1.93094C27.448 1.18427 26.9253 0.586937 26.2533 0.51227ZM6.98932 8.27761C7.36266 6.2616 8.70666 5.44027 11.2453 5.5896C12.216 5.5896 12.9627 5.06694 12.9627 4.02161V1.93094C12.9627 1.18427 12.44 0.586937 11.768 0.51227C-0.402678 -0.682395 -3.31468 19.7763 7.95999 19.7763C11.2453 19.7763 14.232 17.2376 14.232 13.4296C14.232 9.39761 10.2747 7.3816 7.66132 8.72561C7.51199 8.80027 6.98932 9.02427 6.98932 8.27761Z" fill="#B69861"/>
</svg>
