<svg width="154" height="21" viewBox="0 0 154 21" fill="none" xmlns="http://www.w3.org/2000/svg">
<path d="M0.877647 20H2.82814C3.0817 20 3.21823 19.8635 3.21823 19.6099V12.12C3.21823 12.003 3.29625 11.925 3.41328 11.925H3.8619C6.04644 11.925 7.39228 10.6572 7.39228 8.47261V4.14252C7.39228 1.76293 5.79288 0.495109 3.8619 0.495109H0.877647C0.624083 0.495109 0.487549 0.631642 0.487549 0.885207V19.6099C0.487549 19.8635 0.624083 20 0.877647 20ZM3.21823 9.19429V3.22579C3.21823 3.10876 3.29625 3.03075 3.41328 3.03075H3.66685C4.33001 3.03075 4.6616 3.67441 4.6616 4.33757V8.27756C4.6616 8.92122 4.34952 9.38934 3.66685 9.38934H3.41328C3.29625 9.38934 3.21823 9.31132 3.21823 9.19429Z" fill="black"/>
<path d="M14.8511 20.2536C17.0356 20.2536 18.3424 18.7907 18.3424 16.4111V4.16203C18.3424 1.78243 17.0356 0.319565 14.8511 0.319565C12.6665 0.319565 11.3597 1.78243 11.3597 4.16203V16.4111C11.3597 18.7907 12.6665 20.2536 14.8511 20.2536ZM14.0904 16.021V4.55213C14.0904 3.88896 14.1879 3.05025 14.8511 3.05025C15.5142 3.05025 15.6118 3.86946 15.6118 4.55213V16.021C15.6118 16.7037 15.5337 17.5229 14.8511 17.5229C14.1879 17.5229 14.0904 16.8792 14.0904 16.021Z" fill="black"/>
<path d="M24.2582 20H25.3895C25.6821 20 25.7601 19.883 25.7796 19.6489L26.9499 10.1695C26.9889 9.85746 27.3985 9.85746 27.4375 10.1695L28.8224 19.6489C28.8614 19.8635 28.9004 20 29.232 20H30.3242C30.5583 20 30.7143 19.8635 30.7338 19.6294L32.3528 0.904712C32.3723 0.631643 32.2357 0.495109 31.9822 0.495109H30.0122C29.7781 0.495109 29.7781 0.631643 29.7586 0.865703L29.0954 8.25806C29.0759 8.41409 28.7834 8.45311 28.7443 8.27756L27.6521 1.95798C27.5936 1.58738 26.8524 1.58738 26.7939 1.95798L25.6431 8.29707C25.6236 8.4531 25.3505 8.4336 25.331 8.27756L24.6678 0.865703C24.6483 0.631643 24.6093 0.495109 24.3752 0.495109H22.4053C22.1517 0.495109 22.0152 0.631643 22.0347 0.904712L23.8486 19.6294C23.8681 19.8635 24.0242 20 24.2582 20Z" fill="black"/>
<path d="M36.6054 20H42.0668C42.3204 20 42.4569 19.8635 42.4569 19.6099V17.8545C42.4569 17.6009 42.3204 17.4644 42.0668 17.4644H39.1411C39.024 17.4644 38.946 17.3863 38.946 17.2693V11.964C38.946 11.847 39.024 11.7689 39.1411 11.7689H40.9745C41.2281 11.7689 41.3646 11.6324 41.3646 11.3788V9.42835C41.3646 9.17479 41.2281 9.03825 40.9745 9.03825H39.1411C39.024 9.03825 38.946 8.96023 38.946 8.8432V3.22579C38.946 3.10876 39.024 3.03075 39.1411 3.03075H42.0668C42.3204 3.03075 42.4569 2.89421 42.4569 2.64065V0.885207C42.4569 0.631642 42.3204 0.495109 42.0668 0.495109H36.6054C36.3519 0.495109 36.2153 0.631642 36.2153 0.885207V19.6099C36.2153 19.8635 36.3519 20 36.6054 20Z" fill="black"/>
<path d="M46.8994 20H48.8889C49.1425 20 49.201 19.8635 49.201 19.6099V12.2371C49.201 12.003 49.2985 11.886 49.4156 11.886C49.5131 11.886 49.6106 11.964 49.6496 12.2176L50.7029 19.6294C50.7419 19.883 50.9565 20 51.1905 20H53.18C53.4336 20 53.5896 19.844 53.5506 19.5904L52.2243 11.5349C52.2048 11.4374 52.1658 11.2618 52.4193 11.0473C52.8874 10.6572 53.3556 9.97449 53.3556 8.31657V3.55738C53.3556 1.95798 51.8732 0.495109 49.8837 0.495109H46.8994C46.6459 0.495109 46.5093 0.631642 46.5093 0.885207V19.6099C46.5093 19.8635 46.6459 20 46.8994 20ZM49.2205 9.11627V3.22579C49.2205 3.10876 49.3571 3.03075 49.4741 3.03075H49.6886C50.2933 3.03075 50.6834 3.47936 50.6834 3.94748V8.00449C50.6834 8.88221 50.3128 9.31132 49.6886 9.31132H49.4741C49.3571 9.31132 49.2205 9.2333 49.2205 9.11627Z" fill="black"/>
<path d="M57.9249 20H63.3863C63.6398 20 63.7764 19.8635 63.7764 19.6099V17.8545C63.7764 17.6009 63.6398 17.4644 63.3863 17.4644H60.4605C60.3435 17.4644 60.2655 17.3863 60.2655 17.2693V11.964C60.2655 11.847 60.3435 11.7689 60.4605 11.7689H62.294C62.5475 11.7689 62.6841 11.6324 62.6841 11.3788V9.42835C62.6841 9.17479 62.5475 9.03825 62.294 9.03825H60.4605C60.3435 9.03825 60.2655 8.96023 60.2655 8.8432V3.22579C60.2655 3.10876 60.3435 3.03075 60.4605 3.03075H63.3863C63.6398 3.03075 63.7764 2.89421 63.7764 2.64065V0.885207C63.7764 0.631642 63.6398 0.495109 63.3863 0.495109H57.9249C57.6713 0.495109 57.5348 0.631642 57.5348 0.885207V19.6099C57.5348 19.8635 57.6713 20 57.9249 20Z" fill="black"/>
<path d="M68.2189 20H71.3592C72.2369 20 73.0756 19.7269 73.6998 19.1613C74.0509 18.8492 74.3434 18.4201 74.5385 17.9715C74.714 17.5229 74.792 16.9767 74.792 16.4306V4.14252C74.792 2.69916 74.2069 1.84095 73.7193 1.39233C73.1146 0.826693 72.2369 0.495109 71.3592 0.495109H68.2189C67.9653 0.495109 67.8288 0.631642 67.8288 0.885207V19.6099C67.8288 19.8635 67.9653 20 68.2189 20ZM70.5595 17.2693V3.22579C70.5595 3.10876 70.6375 3.03075 70.7545 3.03075H71.1641C71.7493 3.03075 72.0614 3.55738 72.0614 4.14252V16.2356C72.0614 16.8402 71.7688 17.4644 71.1641 17.4644H70.7545C70.6375 17.4644 70.5595 17.3863 70.5595 17.2693Z" fill="black"/>
<path d="M86.2926 20H89.3159C91.676 20 92.7877 18.5761 92.7877 16.0405V12.7832C92.7877 11.1058 91.7345 10.4426 91.0518 10.2671C90.8958 10.228 90.8763 9.97449 91.0323 9.91597C91.637 9.70142 92.7292 8.8432 92.7292 7.43885V4.27906C92.7292 1.99698 91.4614 0.495109 89.0233 0.495109H86.2926C86.0391 0.495109 85.9025 0.631642 85.9025 0.885207V19.6099C85.9025 19.8635 86.0391 20 86.2926 20ZM88.5942 17.2693V11.7689C88.5942 11.6519 88.6722 11.5739 88.7892 11.5739H89.2769C89.745 11.5739 90.0961 12.003 90.0961 12.6857V16.4306C90.0961 17.0938 89.5304 17.4644 89.0818 17.4644H88.7892C88.6722 17.4644 88.5942 17.3863 88.5942 17.2693ZM88.5942 8.8432V3.22579C88.5942 3.10876 88.6722 3.03075 88.7892 3.03075H88.9843C89.6475 3.03075 89.9985 3.40134 89.9985 4.08401V7.92647C89.9985 8.58964 89.628 9.03825 88.9843 9.03825H88.7892C88.6722 9.03825 88.5942 8.96023 88.5942 8.8432Z" fill="black"/>
<path d="M99.2 20H101.17C101.424 20 101.56 19.8635 101.56 19.6099V12.9002L104.213 0.924217C104.271 0.670652 104.135 0.495109 103.862 0.495109H101.794C101.56 0.495109 101.424 0.612138 101.385 0.846198L100.292 7.47786C100.273 7.6534 100.078 7.6534 100.058 7.47786L99.0049 0.846198C98.9659 0.612138 98.8294 0.495109 98.5953 0.495109H96.5278C96.2547 0.495109 96.1182 0.670652 96.1767 0.924217L98.8099 12.9002V19.6099C98.8099 19.8635 98.9464 20 99.2 20Z" fill="black"/>
<path d="M114.818 20H121.177C121.43 20 121.567 19.8635 121.567 19.6099V17.835C121.567 17.5814 121.43 17.4449 121.177 17.4449H118.329C118.193 17.4449 118.134 17.3668 118.154 17.2303L121.567 0.924217C121.625 0.670652 121.508 0.495109 121.235 0.495109H114.877C114.623 0.495109 114.487 0.631642 114.487 0.885207V2.66015C114.487 2.91372 114.623 3.05025 114.877 3.05025H117.724C117.861 3.05025 117.919 3.12827 117.9 3.2648L114.487 19.5709C114.428 19.8245 114.545 20 114.818 20Z" fill="black"/>
<path d="M126.006 20H131.467C131.721 20 131.857 19.8635 131.857 19.6099V17.8545C131.857 17.6009 131.721 17.4644 131.467 17.4644H128.541C128.424 17.4644 128.346 17.3863 128.346 17.2693V11.964C128.346 11.847 128.424 11.7689 128.541 11.7689H130.375C130.628 11.7689 130.765 11.6324 130.765 11.3788V9.42835C130.765 9.17479 130.628 9.03825 130.375 9.03825H128.541C128.424 9.03825 128.346 8.96023 128.346 8.8432V3.22579C128.346 3.10876 128.424 3.03075 128.541 3.03075H131.467C131.721 3.03075 131.857 2.89421 131.857 2.64065V0.885207C131.857 0.631642 131.721 0.495109 131.467 0.495109H126.006C125.752 0.495109 125.616 0.631642 125.616 0.885207V19.6099C125.616 19.8635 125.752 20 126.006 20Z" fill="black"/>
<path d="M135.914 20H137.903C138.137 20 138.293 19.883 138.332 19.6294L138.644 17.3278C138.664 17.1913 138.722 17.1523 138.839 17.1523H140.439C140.556 17.1523 140.614 17.1913 140.634 17.3278L140.946 19.6294C140.985 19.883 141.141 20 141.375 20H143.365C143.618 20 143.774 19.844 143.735 19.5904L141.2 0.846198C141.16 0.592633 141.004 0.495109 140.77 0.495109H138.508C138.274 0.495109 138.118 0.592633 138.079 0.846198L135.543 19.5904C135.504 19.844 135.66 20 135.914 20ZM138.956 14.2266L139.503 7.08776C139.522 6.95123 139.756 6.95123 139.776 7.08776L140.322 14.2266C140.322 14.3436 140.263 14.4216 140.146 14.4216H139.132C139.015 14.4216 138.956 14.3436 138.956 14.2266Z" fill="black"/>
<path d="M147.851 20H153.156C153.41 20 153.546 19.8635 153.546 19.6099V17.8545C153.546 17.6009 153.41 17.4644 153.156 17.4644H150.387C150.27 17.4644 150.192 17.3863 150.192 17.2693V0.885207C150.192 0.631642 150.055 0.495109 149.801 0.495109H147.851C147.597 0.495109 147.461 0.631642 147.461 0.885207V19.6099C147.461 19.8635 147.597 20 147.851 20Z" fill="black"/>
</svg>
