<svg width="153" height="106" viewBox="0 0 153 106" fill="none" xmlns="http://www.w3.org/2000/svg">
<path d="M60.1315 16.0311C61.5248 15.7497 62.9181 15.7497 64.3044 15.7497C62.0807 13.8004 60.6874 11.0137 60.6874 11.0137C61.2433 13.5189 60.9689 15.1867 60.1315 16.0241V16.0311ZM35.91 20.2041C41.7578 18.8108 48.7174 17.6989 55.677 16.5871C47.88 14.9193 34.2422 5.17299 34.2422 5.17299C40.09 11.8511 39.5341 16.5871 35.91 20.2041ZM9.4648 68.3726C45.1004 59.4637 22.5467 83.9597 22.5467 83.9597C26.4452 81.4545 29.7878 79.5052 33.1233 78.1119C35.347 73.6574 37.2963 69.7589 38.6896 67.5352C43.1441 59.4637 57.6192 33.5745 58.1752 32.4556C58.7311 31.3367 58.7311 30.2319 56.7818 30.7878C54.5581 31.3437 26.9941 39.4152 14.4681 47.4937C14.4681 47.4937 13.9122 46.1004 13.6307 43.0393C9.45776 46.9378 3.60999 49.7174 3.60999 49.7174C37.8522 52.7785 9.45776 68.3726 9.45776 68.3726H9.4648ZM15.587 27.7267C11.6885 28.5641 8.90887 28.5641 8.90887 28.5641C11.4141 29.676 13.3633 30.5134 14.7567 31.6252C15.0381 30.5134 15.3126 29.12 15.5941 27.7267H15.587ZM108.011 44.9885C108.011 44.9885 113.022 43.8767 113.859 43.8767C113.578 41.653 111.636 32.1811 111.636 32.1811L108.018 44.9885H108.011Z" fill="#1C1916"/>
<path d="M125.273 21.5974C125.273 21.5974 127.779 20.4855 133.901 20.4855C133.345 25.2215 129.728 47.2122 129.728 47.2122L132.233 48.0496L141.698 46.1004L144.203 53.3415C144.203 53.3415 129.172 55.8467 126.941 55.8467V52.7855C126.941 52.7855 125.548 51.6737 124.718 51.1178C124.999 46.3818 125.273 21.6115 125.273 21.6115V21.5974Z" stroke="#1C1916" stroke-width="1.75926" stroke-miterlimit="10"/>
<path d="M148.939 52.2226C146.715 51.9411 144.766 51.3852 143.091 51.1108L143.929 53.6159C143.929 53.6159 128.897 56.1211 126.667 56.1211V53.06C126.667 53.06 125.273 51.9482 124.443 51.3922C124.999 46.3819 125.28 21.6045 125.28 21.6045H125.562C123.894 17.15 124.45 12.4211 124.45 12.4211C93.8249 34.9678 99.9541 7.96669 99.9541 7.96669C87.7026 27.7337 77.6819 5.18002 77.6819 5.18002C75.7326 10.1904 73.5089 13.2515 71.8341 15.2008H78.5123C78.5123 15.2008 71.2711 37.473 65.1489 51.9482C60.976 61.9689 57.0774 70.6034 55.1282 75.3322C57.0774 75.8882 58.7452 76.7256 60.1385 77.5559L83.8041 66.6978C83.8041 66.6978 82.6923 79.2237 83.2482 85.9089C81.5804 86.4648 77.9563 87.8582 73.5019 89.8074C78.2378 94.8178 83.2482 101.222 83.2482 101.222C79.6311 64.4741 109.975 93.9804 109.975 93.9804C94.3878 67.8097 127.237 78.9493 127.237 78.9493C106.639 64.1926 148.953 52.2226 148.953 52.2226H148.939ZM81.5663 61.6874C81.5663 59.7382 81.0104 58.3448 81.0104 58.3448L78.7867 57.233V38.3034L76.2815 38.0219L81.8478 24.6585C81.8478 24.6585 90.7567 22.7093 95.2111 22.9908C95.7671 27.7267 96.6045 34.1234 96.6045 34.1234L87.4211 36.0726L86.5837 40.5271C87.6956 40.5271 89.3704 40.2456 91.0382 39.9711C91.0382 41.6389 90.7567 45.8189 90.7567 45.8189C90.7567 45.8189 87.4141 46.1004 85.7463 46.3748L84.6345 53.3345L96.886 51.6667C96.886 51.6667 97.7234 57.7889 97.7234 58.9078C94.6623 60.0197 86.0278 61.1315 81.5734 61.6945L81.5663 61.6874ZM114.141 51.1108L105.788 52.5041L104.676 58.6263C104.676 58.6263 103.008 58.9078 101.615 59.1822V56.1211L98.8282 54.4534L103.839 24.1097C103.839 24.1097 108.574 22.1604 115.534 22.4419C117.758 31.3508 122.494 56.6841 122.494 56.6841L116.646 58.0774L114.141 51.1178V51.1108Z" fill="#1C1916"/>
<path d="M129.453 47.4937L131.959 48.3312L135.301 47.7752C126.674 40.5341 140.867 29.12 140.867 29.12C137.525 29.676 134.745 29.4015 132.514 28.5641C131.403 36.6356 129.453 47.4937 129.453 47.4937V47.4937Z" fill="#1C1916"/>
<path d="M16.706 24.6656C16.706 24.6656 51.5042 14.6448 78.5053 14.9193C78.5053 14.9193 71.2642 37.1915 65.142 51.6667C59.2942 66.1419 54.0094 77.2815 53.4464 78.6678C52.8834 80.0541 54.5582 79.7796 54.5582 79.7796L83.7901 66.4163C83.7901 66.4163 82.6782 78.9422 83.2342 85.6274C79.6171 87.0208 68.2031 91.7496 55.9516 95.6482C40.9205 100.94 24.496 104.832 19.4857 104.832C19.4857 104.832 33.9608 75.8811 38.4153 67.5282C42.8697 59.4567 57.3449 33.5674 57.9008 32.4485C58.4568 31.3296 58.4568 30.2248 56.5075 30.7808C54.2838 31.3367 26.7197 39.4082 14.1938 47.4867C14.1938 47.7682 11.4071 41.6389 16.699 24.6585L16.706 24.6656Z" stroke="#1C1916" stroke-width="1.75926" stroke-miterlimit="10"/>
<path d="M17.5362 84.7971L21.9907 82.0104C26.4451 79.2237 30.6181 77 34.2421 75.6067C34.5236 75.0508 34.7981 74.2134 35.0796 73.6574C32.0184 74.7693 28.4014 76.4441 24.7773 78.6678C27.2825 75.0508 30.8996 69.4845 28.6758 65.8604C26.7266 62.7993 21.4347 62.2434 12.5258 63.9111C16.1429 61.406 20.8788 57.233 20.3229 53.6089C19.4855 50.2663 14.4751 48.0426 5.01029 46.9308C7.23399 45.8189 10.5766 43.5882 13.3633 41.083V39.1337C9.46474 43.3067 2.23066 46.9308 2.23066 46.9308L0.00695801 48.0426L2.51214 48.3241C15.3196 49.436 18.3807 51.9411 18.9366 54.1719C19.774 58.0704 11.6955 63.6367 8.35992 65.3045L3.62399 67.8097L8.91585 66.4163C22.2792 63.0737 26.4521 64.7485 27.571 66.6978C29.7947 70.3148 23.6725 78.1119 21.1673 80.8985L17.5503 84.7971H17.5362ZM60.9618 77L62.3551 76.4441C60.6873 75.0508 58.7381 73.6574 56.2329 72.5456C55.9514 72.8271 55.9514 73.383 55.677 73.6574C57.9007 74.7693 59.5755 75.8811 60.9688 77H60.9618Z" fill="#1C1916"/>
<path d="M132.789 27.1708C134.457 27.4522 136.131 27.7267 138.081 27.7267C135.294 30.5133 130.009 36.3541 131.402 41.9274C131.958 44.1511 133.908 46.1004 136.694 47.4937L138.918 46.9378C135.301 45.5445 133.352 43.5952 132.514 41.3715C130.847 34.9678 140.311 27.1708 140.311 27.1708L142.261 25.503L140.037 26.0589C137.25 26.3404 135.027 26.3404 133.077 25.7774C133.077 26.3333 133.077 26.6148 132.796 27.1708H132.789ZM148.376 49.1615C145.871 48.88 143.64 48.3241 141.698 47.7682L142.254 49.4359C143.091 49.7174 144.203 49.9919 145.04 49.9919C144.484 50.2734 143.647 50.5478 142.817 50.8293L143.372 52.2226C146.434 51.1108 148.383 50.5548 148.664 50.5548L152.007 49.7174L148.39 49.1615H148.376ZM88.5258 14.9193C91.8684 14.9193 94.9295 12.97 97.9906 8.79705C97.7092 12.1396 97.7092 16.8685 101.052 19.0993C104.95 21.6045 112.184 19.0993 122.487 11.5837C122.487 13.8074 122.768 18.2619 125.273 21.8859C125.963 21.33 125.829 21.6045 126.667 21.33C123.605 16.5941 124.161 10.1974 124.161 10.1974L124.443 8.52965L123.05 9.36705C109.968 19.1134 104.394 19.3878 101.889 17.72C97.7162 14.9334 99.9399 5.75002 99.9399 5.75002L101.052 1.00002L98.5466 5.17298C95.204 10.7393 91.8684 13.5259 88.5258 13.2445C82.1221 12.963 77.6677 2.38631 77.6677 2.38631L77.1117 0.992981L76.5558 2.38631C72.1014 13.2445 68.7588 15.4682 66.5351 15.1937C63.474 14.9122 60.9688 9.0715 60.4128 6.56631V6.28483L59.0195 6.56631C59.5754 9.0715 60.1314 12.1326 58.4636 12.97C54.2906 15.7567 39.534 5.72891 34.2421 1.55594L33.4047 2.6678C37.0217 6.84076 38.4151 10.4648 37.0217 13.5259C33.1232 23.5467 8.34581 25.4959 8.07137 25.4959L5.01025 25.7774L8.07137 26.8893C11.414 28.0011 13.6377 29.6759 15.031 31.0622C15.031 30.5063 15.3125 29.9504 15.3125 29.3945C14.2006 28.5571 12.8073 27.4452 11.1395 26.6078C12.5328 26.3263 14.4821 26.0519 16.4314 25.7704C16.4314 25.4889 16.7128 24.933 16.7128 24.6585C16.7128 24.6585 22.8351 22.9908 31.744 20.76C34.8051 19.0922 37.0358 17.143 38.1477 14.6378C39.2595 12.1326 38.7036 9.0715 37.0358 6.01039C43.158 10.1834 54.8536 17.7059 59.308 14.6378C60.1454 14.0819 60.7014 12.97 60.9758 11.8511C61.8132 13.2445 62.6436 14.6378 63.7625 15.7496C65.9862 15.4682 68.2169 15.4682 70.4406 15.1937C72.6643 13.2445 74.8951 9.62742 77.1188 4.33557C78.7866 7.67817 82.9666 14.6378 88.5328 14.9122L88.5258 14.9193ZM121.656 67.2537C122.494 62.2433 129.728 57.7889 136.413 55.0022C134.745 55.2837 133.07 55.5582 131.677 55.8396C126.111 58.9008 121.1 62.5178 120.263 67.2537C119.707 70.0404 120.819 72.5456 123.605 75.3252C118.595 73.9319 109.13 72.2641 105.788 76.437C103.838 78.9422 104.12 83.1152 106.9 88.6885C102.164 84.5156 92.6988 77.8304 86.5766 80.617C85.1832 81.4545 84.0714 82.5663 83.234 84.2341V86.1833C82.9525 86.1833 82.678 86.4648 82.3966 86.4648C81.5591 89.2515 81.5591 92.587 81.8406 96.767C80.4473 95.0993 77.9421 92.0311 75.4369 89.2515C74.881 89.533 74.5995 89.533 74.0436 89.8074C78.2166 94.2619 82.1151 99.2722 82.1151 99.5537L83.5084 101.221L83.2269 98.9978C82.3895 89.2515 83.5084 83.6852 87.1254 82.0174C94.3666 78.6748 108.56 92.3196 108.842 92.5941L112.459 96.2111L109.954 91.7567C105.781 84.797 104.943 80.0611 106.892 77.5559C111.065 72.5456 126.378 77.5559 126.378 77.8374L130.832 79.2308L127.215 76.4441C123.042 73.1015 121.368 70.0404 121.649 67.2608L121.656 67.2537Z" fill="#1C1916"/>
</svg>
