<svg width="6" height="34" viewBox="0 0 6 34" fill="none" xmlns="http://www.w3.org/2000/svg">
<g clip-path="url(#clip0_147_309)">
<path d="M0.404827 2.29056C0.404827 1.47932 0.571848 0.93054 0.905888 0.64422C1.23993 0.3579 1.78871 0.16702 2.55223 0.0715799C2.69539 0.0715799 2.83855 0.0477199 2.98171 -1.25154e-07C3.12487 -1.18897e-07 3.26803 -1.12639e-07 3.41119 -1.06381e-07C3.84067 0.0477199 4.17471 0.1193 4.41331 0.21474C4.69963 0.3579 4.93823 0.52492 5.12911 0.7158C5.31999 0.9544 5.46315 1.193 5.55859 1.4316C5.70175 1.71792 5.79719 2.07582 5.84491 2.5053C5.84491 2.93478 5.82105 3.36426 5.77333 3.79374C5.77333 4.22322 5.77333 4.6527 5.77333 5.08218C5.77333 5.51166 5.74947 5.94114 5.70175 6.37062C5.70175 6.8001 5.70175 7.22958 5.70175 7.65906C5.70175 8.08854 5.72561 8.51802 5.77333 8.9475C5.82105 9.37698 5.84491 9.7826 5.84491 10.1644C5.84491 11.0233 5.63017 11.6437 5.20069 12.0254C4.81893 12.4072 4.19857 12.5981 3.33961 12.5981C3.10101 12.5981 2.88627 12.5981 2.69539 12.5981C2.55223 12.6458 2.38521 12.6697 2.19433 12.6697C1.00133 12.4788 0.380968 11.8107 0.333248 10.6654C0.333248 10.2837 0.333248 9.92576 0.333248 9.59172C0.380969 9.25768 0.404827 8.89978 0.404827 8.51802C0.404827 8.13626 0.380969 7.7545 0.333248 7.37274C0.333248 7.0387 0.333248 6.6808 0.333248 6.29904C0.333248 5.965 0.333248 5.63096 0.333248 5.29692C0.380969 5.0106 0.404827 4.67656 0.404827 4.2948L0.404827 2.29056Z" fill="#1C1916"/>
</g>
<defs>
<clipPath id="clip0_147_309">
<rect width="6" height="34" fill="white"/>
</clipPath>
</defs>
</svg>
