<svg width="34" height="6" viewBox="0 0 34 6" fill="none" xmlns="http://www.w3.org/2000/svg">
<path d="M2.29056 5.44008C1.47932 5.44008 0.93054 5.27306 0.64422 4.93902C0.3579 4.60498 0.16702 4.0562 0.07158 3.29268C0.07158 3.14952 0.04772 3.00636 0 2.8632C0 2.72004 0 2.57688 0 2.43372C0.04772 2.00424 0.1193 1.6702 0.21474 1.4316C0.3579 1.14528 0.52492 0.90668 0.7158 0.715801C0.9544 0.524921 1.193 0.38176 1.4316 0.28632C1.71792 0.14316 2.07582 0.0477208 2.5053 0C2.93478 0 3.36426 0.023862 3.79374 0.0715828C4.22322 0.0715828 4.6527 0.0715828 5.08218 0.0715828C5.51166 0.0715828 5.94114 0.0954424 6.37062 0.143162C6.8001 0.143162 7.22958 0.143162 7.65906 0.143162C8.08854 0.143162 8.51802 0.119302 8.9475 0.0715828C9.37698 0.023862 9.7826 0 10.1644 0C11.0233 0 11.6437 0.214742 12.0254 0.644222C12.4072 1.02598 12.5981 1.64634 12.5981 2.5053C12.5981 2.7439 12.5981 2.95864 12.5981 3.14952C12.6458 3.29268 12.6697 3.4597 12.6697 3.65058C12.4788 4.84358 11.8107 5.46394 10.6654 5.51166C10.2837 5.51166 9.92576 5.51166 9.59172 5.51166C9.25768 5.46394 8.89978 5.44008 8.51802 5.44008C8.13626 5.44008 7.7545 5.46394 7.37274 5.51166C7.0387 5.51166 6.6808 5.51166 6.29904 5.51166C5.965 5.51166 5.63096 5.51166 5.29692 5.51166C5.0106 5.46394 4.67656 5.44008 4.2948 5.44008H2.29056Z" fill="#1C1916"/>
</svg>
