<svg width="143" height="141" viewBox="0 0 143 141" fill="none" xmlns="http://www.w3.org/2000/svg">
<path fill-rule="evenodd" clip-rule="evenodd" d="M58.9061 -0.348939C59.4847 -0.42359 60.0727 -0.373173 60.6302 -0.201015L60.6385 -0.198449L65.5365 1.33204L70.6184 0.760368C71.1056 0.680888 71.6033 0.688508 72.0884 0.783229L72.1579 0.7968L75.6746 1.68542L81.9399 0.88294C82.4685 0.757965 83.0179 0.740054 83.5554 0.831414C84.1143 0.92642 84.6466 1.13723 85.1182 1.44967L89.6884 3.9744L94.439 4.16593H94.6133L100.185 4.40524L100.193 4.40563C100.865 4.43862 101.519 4.63811 102.095 4.98637C102.668 5.33242 103.146 5.8145 103.487 6.38975C103.489 6.39331 103.491 6.39687 103.494 6.40044L106.362 11.1801L109.845 13.2936L115.372 14.775C116.041 14.8971 116.67 15.1861 117.2 15.6168C117.742 16.0575 118.159 16.6299 118.414 17.2779L120.605 21.9469L124.181 24.4217C124.779 24.7647 125.276 25.2604 125.621 25.8593L128.343 30.3654C128.345 30.3683 128.347 30.3712 128.349 30.3741C128.488 30.6032 128.605 30.845 128.698 31.096L130.719 35.6097L134.801 39.1985C135.127 39.4405 135.414 39.7322 135.651 40.0634C135.655 40.0687 135.659 40.0741 135.663 40.0796L138.729 44.2976L138.737 44.3099C139.096 44.8156 139.336 45.3952 139.439 46.0058C139.543 46.6165 139.508 47.2429 139.337 47.8384L137.952 52.628L141.197 56.3918L141.217 56.4168C141.601 56.8853 141.88 57.4309 142.034 58.0164L142.04 58.0399L143.277 63.1166C143.278 63.121 143.279 63.1253 143.28 63.1296C143.504 64.0283 143.412 64.9767 143.021 65.8163L143.017 65.8249L140.663 70.8341L141.32 75.5896C141.433 76.1576 141.421 76.7443 141.284 77.3085L141.262 77.4011L139.655 82.389L139.917 87.7837C139.945 88.0678 139.939 88.3542 139.901 88.6373L139.896 88.675L139.026 93.9456C139.025 93.9503 139.025 93.9549 139.024 93.9596C138.878 94.8795 138.419 95.7211 137.725 96.3424C137.721 96.346 137.717 96.3497 137.713 96.3534L134.16 99.5744L134.232 104.754L134.232 104.77C134.233 105.479 134.053 106.176 133.709 106.795L133.696 106.818L131.141 111.203C130.879 111.663 130.53 112.066 130.111 112.391C129.746 112.674 129.335 112.892 128.898 113.035L123.901 115.148L120.625 118.643L118.71 124.113C118.709 124.115 118.709 124.117 118.708 124.119C118.461 124.832 118.019 125.462 117.433 125.937L113.171 129.393C112.992 129.549 112.795 129.686 112.585 129.801L106.945 133.167H106.764L101.944 135.637L101.5 135.809L95.439 137.702H95.4375L90.4095 139.769L89.864 139.942L84.3559 140.96L84.3448 140.962C83.5598 141.1 82.7522 141.005 82.0212 140.691L76.9637 138.794L71.7976 139.227L66.5815 141.142L66.5136 141.163C65.7678 141.392 64.9725 141.4 64.2232 141.187L59.3236 139.962H59.0781L53.6157 138.023L48.227 138.25C48.2206 138.25 48.2143 138.25 48.2079 138.251C47.4324 138.289 46.6631 138.099 45.995 137.705L41.4187 135.097C41.4144 135.095 41.4101 135.092 41.4058 135.09C40.8916 134.799 40.4477 134.399 40.1055 133.918L36.9765 129.818L32.2657 127.313C32.0509 127.215 31.8466 127.096 31.6556 126.959L27.2245 123.903L22.0051 121.476L21.9976 121.473C21.6192 121.296 21.2699 121.063 20.961 120.782L20.9406 120.763L17.1148 117.136C16.4574 116.52 16.027 115.701 15.8902 114.813L14.8333 109.72L12.8096 106.256L12.7242 106.199L8.80725 101.384C8.39809 101.023 8.06425 100.583 7.82683 100.088C7.57018 99.5535 7.43322 98.9702 7.4245 98.3789L6.85335 94.0086L3.97165 90.4688C3.52428 89.9977 3.19602 89.4248 3.01611 88.7981C2.845 88.202 2.81349 87.5761 2.9221 86.9684L3.22984 82.2756L2.04925 77.4501C1.85156 76.9126 1.76832 76.3386 1.80602 75.7652L1.80747 75.7431L2.2063 70.9329L0.0292591 66.4184L0.0254461 66.4104C-0.326036 65.6685 -0.4454 64.8376 -0.316636 64.0265C-0.197369 63.2752 0.129563 62.5734 0.625679 61.9997L3.24645 58.52V58.1783L4.99651 52.9156L4.3164 48.0921C4.21229 47.4737 4.25182 46.8395 4.43215 46.2384C4.61925 45.6148 4.95263 45.0446 5.40492 44.5755L9.18752 40.6629L9.21235 40.6353L12.5809 36.3012L12.5862 36.2932L15.4532 31.7039L15.4633 31.6852L17.8102 26.4992L20.1725 21.3923L20.1774 21.3821C20.6276 20.4306 21.4295 19.6912 22.4139 19.3194L27.0793 17.5299L30.2808 13.4637C30.4216 13.2766 30.5806 13.1038 30.7555 12.9478L34.7402 9.21088C35.3008 8.67893 36.0014 8.31797 36.7598 8.17021L36.77 8.16825L42.3836 7.09785L47.7291 5.90727L52.5347 3.20122L57.2685 0.236415L57.276 0.231738C57.7717 -0.0763274 58.3276 -0.274295 58.9061 -0.348939Z" fill="#D5C3AC"/>
</svg>
